<svg width="35" height="35" viewBox="0 0 35 35" fill="none" xmlns="http://www.w3.org/2000/svg">
<path d="M10.3087 31.0224C12.522 32.2013 14.9919 32.8159 17.4996 32.8117C25.9563 32.8117 32.8117 25.9563 32.8117 17.4996C32.8117 9.04291 25.9563 2.18745 17.4996 2.18745C9.04293 2.18745 2.18747 9.04291 2.18747 17.4996C2.18747 20.1026 2.83641 22.5511 3.97971 24.6948C4.24647 25.1942 4.30919 25.7776 4.15471 26.3223L2.35517 32.6469L8.68127 30.8488C9.22577 30.6939 9.80914 30.7561 10.3087 31.0224ZM17.4996 34.9992C14.6328 35.0032 11.8092 34.3 9.27917 32.9517L2.32309 34.9306C2.01083 35.0193 1.68055 35.023 1.36638 34.9414C1.05221 34.8597 0.765539 34.6956 0.536003 34.4661C0.306468 34.2366 0.14239 33.9499 0.0607248 33.6357C-0.0209402 33.3215 -0.017229 32.9913 0.0714745 32.679L2.04893 25.7229C0.699693 23.1922 -0.00408665 20.3675 1.78508e-05 17.4996C1.78508e-05 7.83544 7.83546 0 17.4996 0C27.1637 0 34.9992 7.83544 34.9992 17.4996C34.9992 27.1637 27.1637 34.9992 17.4996 34.9992ZM10.9373 14.2184C10.9373 13.9283 11.0525 13.6501 11.2576 13.445C11.4627 13.2399 11.7409 13.1247 12.031 13.1247H22.9682C23.2583 13.1247 23.5365 13.2399 23.7416 13.445C23.9467 13.6501 24.0619 13.9283 24.0619 14.2184C24.0619 14.5085 23.9467 14.7867 23.7416 14.9918C23.5365 15.1969 23.2583 15.3121 22.9682 15.3121H12.031C11.7409 15.3121 11.4627 15.1969 11.2576 14.9918C11.0525 14.7867 10.9373 14.5085 10.9373 14.2184ZM10.9373 20.7808C10.9373 20.4907 11.0525 20.2125 11.2576 20.0074C11.4627 19.8023 11.7409 19.687 12.031 19.687H18.5933C18.8834 19.687 19.1616 19.8023 19.3667 20.0074C19.5718 20.2125 19.687 20.4907 19.687 20.7808C19.687 21.0708 19.5718 21.349 19.3667 21.5541C19.1616 21.7592 18.8834 21.8745 18.5933 21.8745H12.031C11.7409 21.8745 11.4627 21.7592 11.2576 21.5541C11.0525 21.349 10.9373 21.0708 10.9373 20.7808Z" fill="black" stroke="black" stroke-width="0"/>
</svg>
