<svg width="30" height="30" viewBox="0 0 30 30" fill="none" xmlns="http://www.w3.org/2000/svg">
<path fill-rule="evenodd" clip-rule="evenodd" d="M0 15C-2.93527e-08 16.9698 0.387986 18.9204 1.14181 20.7403C1.89563 22.5601 3.00052 24.2137 4.3934 25.6066C5.78628 26.9995 7.43987 28.1044 9.25975 28.8582C11.0796 29.612 13.0302 30 15 30C16.9698 30 18.9204 29.612 20.7403 28.8582C22.5601 28.1044 24.2137 26.9995 25.6066 25.6066C26.9995 24.2137 28.1044 22.5601 28.8582 20.7403C29.612 18.9204 30 16.9698 30 15C30 11.0218 28.4196 7.20644 25.6066 4.3934C22.7936 1.58035 18.9782 0 15 0C11.0218 0 7.20644 1.58035 4.3934 4.3934C1.58035 7.20644 5.92805e-08 11.0218 0 15ZM28.2353 15C28.2353 18.5102 26.8409 21.8767 24.3588 24.3588C21.8767 26.8409 18.5102 28.2353 15 28.2353C11.4898 28.2353 8.12333 26.8409 5.64123 24.3588C3.15913 21.8767 1.76471 18.5102 1.76471 15C1.76471 11.4898 3.15913 8.12333 5.64123 5.64123C8.12333 3.15913 11.4898 1.76471 15 1.76471C18.5102 1.76471 21.8767 3.15913 24.3588 5.64123C26.8409 8.12333 28.2353 11.4898 28.2353 15Z" fill="#F5F5F5"/>
<path fill-rule="evenodd" clip-rule="evenodd" d="M8.82324 15C8.82324 22.7576 11.3679 29.1176 14.9997 29.1176C18.6315 29.1176 21.1762 22.7576 21.1762 15C21.1762 7.24232 18.6315 0.882324 14.9997 0.882324C11.3679 0.882324 8.82324 7.24232 8.82324 15ZM19.4115 15C19.4115 21.8629 17.2144 27.3529 14.9997 27.3529C12.785 27.3529 10.5879 21.8629 10.5879 15C10.5879 8.13703 12.785 2.64703 14.9997 2.64703C17.2144 2.64703 19.4115 8.13703 19.4115 15Z" fill="#F5F5F5"/>
<path d="M3.9436 6.72714L5.12595 5.41772C5.31478 5.58714 5.51595 5.75302 5.73125 5.91361C8.05713 7.65714 11.7277 8.71949 15.7283 8.71949C19.1395 8.71949 22.323 7.94831 24.6489 6.61949C25.1848 6.31628 25.6911 5.96356 26.1612 5.56596L27.3083 6.90714C26.7824 7.35714 26.186 7.77184 25.526 8.14949C22.9195 9.64067 19.4342 10.4842 15.7283 10.4842C11.3695 10.4842 7.32478 9.3142 4.67242 7.32537C4.4204 7.13667 4.1772 6.93822 3.9436 6.72714ZM3.9436 23.2942L5.12595 24.6001C5.31478 24.4307 5.51595 24.2648 5.73125 24.106C8.05713 22.3624 11.7277 21.3001 15.7283 21.3001C19.1395 21.3001 22.323 22.0695 24.6489 23.4001C25.2154 23.7248 25.7218 24.0777 26.1612 24.4518L27.3083 23.1107C26.7543 22.6418 26.1576 22.2258 25.526 21.8683C22.9195 20.3789 19.4342 19.5354 15.7283 19.5354C11.3695 19.5354 7.32478 20.7054 4.67242 22.6924C4.41478 22.8865 4.17125 23.0877 3.9436 23.2942ZM0.881836 15.8824V14.1177H29.1171V15.8824H0.881836Z" fill="#F5F5F5"/>
</svg>
