<svg width="26" height="25" viewBox="0 0 26 25" fill="none" xmlns="http://www.w3.org/2000/svg">
<path d="M13.423 2.00684C15.7246 2.00684 17.9318 2.92301 19.5592 4.55382C21.1867 6.18463 22.1009 8.39647 22.1009 10.7028C22.1009 14.3774 19.5243 18.382 14.4377 22.7594C14.1548 23.0028 13.7942 23.1366 13.4214 23.1362C13.0485 23.1359 12.6881 23.0016 12.4057 22.7576L12.0693 22.465C7.20786 18.2018 4.74512 14.2953 4.74512 10.7028C4.74512 8.39647 5.65939 6.18463 7.28682 4.55382C8.91424 2.92301 11.1215 2.00684 13.423 2.00684ZM13.423 3.34467C11.4756 3.34467 9.6079 4.1199 8.23085 5.49981C6.8538 6.87973 6.08018 8.75129 6.08018 10.7028C6.08018 13.8262 8.34801 17.425 12.946 21.4563L13.278 21.7444C13.3183 21.7792 13.3698 21.7983 13.423 21.7983C13.4763 21.7983 13.5277 21.7792 13.5681 21.7444C18.3886 17.5953 20.7659 13.9002 20.7659 10.7028C20.7659 9.7365 20.576 8.77968 20.2069 7.88696C19.8379 6.99423 19.2971 6.18308 18.6152 5.49981C17.9334 4.81655 17.1239 4.27456 16.233 3.90478C15.3421 3.535 14.3873 3.34467 13.423 3.34467ZM13.423 7.35819C14.3082 7.35819 15.1572 7.71056 15.7831 8.3378C16.409 8.96503 16.7607 9.81574 16.7607 10.7028C16.7607 11.5898 16.409 12.4405 15.7831 13.0678C15.1572 13.695 14.3082 14.0474 13.423 14.0474C12.5378 14.0474 11.6889 13.695 11.0629 13.0678C10.437 12.4405 10.0854 11.5898 10.0854 10.7028C10.0854 9.81574 10.437 8.96503 11.0629 8.3378C11.6889 7.71056 12.5378 7.35819 13.423 7.35819ZM13.423 8.69602C12.8919 8.69602 12.3825 8.90745 12.007 9.28379C11.6314 9.66013 11.4204 10.1706 11.4204 10.7028C11.4204 11.235 11.6314 11.7454 12.007 12.1218C12.3825 12.4981 12.8919 12.7095 13.423 12.7095C13.9542 12.7095 14.4635 12.4981 14.8391 12.1218C15.2146 11.7454 15.4256 11.235 15.4256 10.7028C15.4256 10.1706 15.2146 9.66013 14.8391 9.28379C14.4635 8.90745 13.9542 8.69602 13.423 8.69602Z" fill="black"/>
</svg>
