<svg width="35" height="35" viewBox="0 0 35 35" fill="none" xmlns="http://www.w3.org/2000/svg">
<path d="M17.5 2.8125C20.7323 2.8125 23.8323 4.09654 26.1179 6.38214C28.4035 8.66774 29.6875 11.7677 29.6875 15C29.6875 20.15 26.0688 25.7625 18.925 31.8975C18.5278 32.2387 18.0213 32.4261 17.4977 32.4257C16.974 32.4252 16.4679 32.2369 16.0713 31.895L15.5988 31.485C8.77125 25.51 5.3125 20.035 5.3125 15C5.3125 11.7677 6.59654 8.66774 8.88214 6.38214C11.1677 4.09654 14.2677 2.8125 17.5 2.8125ZM17.5 4.6875C14.765 4.6875 12.1419 5.77399 10.208 7.70796C8.27399 9.64193 7.1875 12.265 7.1875 15C7.1875 19.3775 10.3725 24.4212 16.83 30.0712L17.2962 30.475C17.3529 30.5237 17.4252 30.5506 17.5 30.5506C17.5748 30.5506 17.6471 30.5237 17.7038 30.475C24.4737 24.66 27.8125 19.4813 27.8125 15C27.8125 13.6457 27.5458 12.3047 27.0275 11.0536C26.5093 9.80241 25.7496 8.66557 24.792 7.70796C23.8344 6.75036 22.6976 5.99074 21.4464 5.47249C20.1953 4.95424 18.8543 4.6875 17.5 4.6875ZM17.5 10.3125C18.7432 10.3125 19.9355 10.8064 20.8146 11.6854C21.6936 12.5645 22.1875 13.7568 22.1875 15C22.1875 16.2432 21.6936 17.4355 20.8146 18.3146C19.9355 19.1936 18.7432 19.6875 17.5 19.6875C16.2568 19.6875 15.0645 19.1936 14.1854 18.3146C13.3064 17.4355 12.8125 16.2432 12.8125 15C12.8125 13.7568 13.3064 12.5645 14.1854 11.6854C15.0645 10.8064 16.2568 10.3125 17.5 10.3125ZM17.5 12.1875C16.7541 12.1875 16.0387 12.4838 15.5113 13.0113C14.9838 13.5387 14.6875 14.2541 14.6875 15C14.6875 15.7459 14.9838 16.4613 15.5113 16.9887C16.0387 17.5162 16.7541 17.8125 17.5 17.8125C18.2459 17.8125 18.9613 17.5162 19.4887 16.9887C20.0162 16.4613 20.3125 15.7459 20.3125 15C20.3125 14.2541 20.0162 13.5387 19.4887 13.0113C18.9613 12.4838 18.2459 12.1875 17.5 12.1875Z" fill="white"/>
</svg>
