<svg width="28" height="35" viewBox="0 0 28 35" fill="none" xmlns="http://www.w3.org/2000/svg">
<path d="M23.5494 23.3349C22.4191 23.3362 21.3342 23.9365 20.528 25.0069L9.16162 18.1634C9.16162 17.9301 9.16162 17.7357 9.16162 17.5024C9.16162 17.2691 9.16162 17.0746 9.16162 16.8608L20.528 9.99783C21.2399 10.9408 22.1714 11.5217 23.1644 11.6418C24.1573 11.762 25.1504 11.414 25.975 10.657C26.7996 9.90002 27.4049 8.78065 27.688 7.48903C27.9711 6.19741 27.9147 4.81318 27.5282 3.57144C27.1417 2.3297 26.4491 1.307 25.5679 0.677052C24.6867 0.0471012 23.6713 -0.151265 22.6942 0.115643C21.717 0.382552 20.8384 1.09828 20.2075 2.14126C19.5765 3.18425 19.2323 4.49019 19.2331 5.83728V6.4983L7.86672 13.3418C7.26007 12.5364 6.49088 11.9912 5.6557 11.7745C4.82052 11.5578 3.95657 11.6793 3.17232 12.1237C2.38806 12.5682 1.71844 13.3158 1.24753 14.2727C0.776617 15.2296 0.525391 16.3532 0.525391 17.5024C0.525391 18.6515 0.776617 19.7751 1.24753 20.732C1.71844 21.6889 2.38806 22.4365 3.17232 22.881C3.95657 23.3255 4.82052 23.447 5.6557 23.2303C6.49088 23.0135 7.26007 22.4683 7.86672 21.6629L19.2331 28.5259V29.1675C19.2331 30.321 19.4862 31.4487 19.9605 32.4078C20.4348 33.367 21.1089 34.1146 21.8976 34.556C22.6863 34.9975 23.5542 35.113 24.3915 34.8879C25.2288 34.6629 25.9979 34.1074 26.6015 33.2917C27.2052 32.476 27.6162 31.4367 27.7828 30.3053C27.9493 29.1739 27.8639 28.0012 27.5372 26.9354C27.2105 25.8697 26.6572 24.9588 25.9474 24.3179C25.2376 23.677 24.4031 23.3349 23.5494 23.3349Z" fill="#fcfcfc"/>
</svg>
