<svg width="72" height="93" viewBox="0 0 72 93" fill="none" xmlns="http://www.w3.org/2000/svg">
<path d="M32.8598 0.553526L22.7271 0.374133L29.0271 26.6515C4.54742 31.1684 0.394845 54.0783 0.770132 54.085C-1.43959 77.5244 17.9289 89.1586 27.8894 92.0459C26.8353 87.902 24.6508 79.6835 24.3457 79.961C13.167 75.1664 11.1613 60.9872 11.1736 60.2802C11.139 45.0044 24.4561 37.6498 31.119 35.8819L36.047 54.7095L21.7862 54.4571C25.3197 67.1311 32.3879 92.4084 32.3929 92.1256C64.6306 94.8179 70.7949 64.1645 70.7764 65.225C74.4922 41.5294 54.7496 29.8178 44.4139 26.9239L47.6008 37.9417C55.7163 40.9966 59.3884 48.3551 60.7758 54.2398C61.6262 57.847 61.2127 61.6369 59.9327 65.1142C55.0296 78.4343 44.9812 81.9893 40.0769 82.0075L35.8933 63.5466L49.7789 63.7924L32.8598 0.553526Z" fill="#FA8B08"/>
</svg>
