<svg width="29" height="29" viewBox="0 0 29 29" fill="none" xmlns="http://www.w3.org/2000/svg">
<path d="M13.6033 2.07654C13.9701 1.33329 15.0299 1.33329 15.3967 2.07654L18.281 7.92078C18.718 8.80621 19.5627 9.41992 20.5399 9.56191L26.9894 10.4991C27.8096 10.6183 28.1371 11.6262 27.5436 12.2048L22.8767 16.7539C22.1696 17.4431 21.847 18.4361 22.0139 19.4093L23.1156 25.8327C23.2557 26.6496 22.3983 27.2726 21.6646 26.8869L15.896 23.8542C15.0221 23.3947 13.9779 23.3947 13.104 23.8542L7.33536 26.8869C6.60173 27.2726 5.7443 26.6496 5.88441 25.8327L6.98612 19.4093C7.15303 18.4361 6.83039 17.4431 6.12333 16.7539L1.45642 12.2048C0.862904 11.6262 1.19041 10.6183 2.01063 10.4991L8.46014 9.56191C9.43727 9.41992 10.282 8.80621 10.719 7.92078L13.6033 2.07654Z" stroke="white" stroke-width="2"/>
</svg>
