<svg width="8" height="35" viewBox="0 0 8 35" fill="none" xmlns="http://www.w3.org/2000/svg">
<path d="M7.89701 3.94723C7.89717 4.46576 7.79521 4.97924 7.59693 5.45836C7.39865 5.93748 7.10795 6.37285 6.74141 6.73962C6.37488 7.10639 5.93969 7.39737 5.4607 7.59596C4.98171 7.79454 4.4683 7.89684 3.94977 7.89701C3.43125 7.89717 2.91777 7.79521 2.43865 7.59693C1.95953 7.39865 1.52416 7.10795 1.15739 6.74141C0.790616 6.37488 0.499633 5.93969 0.301049 5.4607C0.102464 4.98171 0.000166761 4.4683 2.03993e-07 3.94977C-0.000336172 2.90256 0.415343 1.89811 1.15559 1.15739C1.89584 0.416661 2.90003 0.000336602 3.94723 2.0402e-07C4.99444 -0.000336194 5.99889 0.415343 6.73962 1.15559C7.48035 1.89584 7.89667 2.90003 7.89701 3.94723Z" fill="black"/>
<path d="M3.95016 21.4461C6.13016 21.4461 7.8974 19.6789 7.8974 17.4989C7.8974 15.3189 6.13016 13.5516 3.95016 13.5516C1.77017 13.5516 0.00292969 15.3189 0.00292969 17.4989C0.00292969 19.6789 1.77017 21.4461 3.95016 21.4461Z" fill="black"/>
<path d="M3.95016 35.0002C6.13016 35.0002 7.8974 33.2329 7.8974 31.0529C7.8974 28.8729 6.13016 27.1057 3.95016 27.1057C1.77017 27.1057 0.00292969 28.8729 0.00292969 31.0529C0.00292969 33.2329 1.77017 35.0002 3.95016 35.0002Z" fill="black"/>
</svg>
