<svg width="38" height="40" viewBox="0 0 38 40" fill="none" xmlns="http://www.w3.org/2000/svg">
<path d="M36.6272 33.1969L33.517 33.983C32.8195 34.1644 32.2729 34.7288 32.1221 35.4746L31.4624 38.4375C31.1042 40.05 29.1815 40.5539 28.1825 39.284L22.5464 32.3504C22.094 31.786 22.3391 30.8992 23.0177 30.7178C26.3541 29.8511 29.3512 27.8556 31.5566 25.0136C31.9148 24.55 32.5556 24.4896 32.9515 24.9129L37.1361 29.3875C38.5687 30.9193 38.0598 32.8341 36.6272 33.1969Z" fill="#FF8311"/>
<path d="M1.659 33.1969L4.76921 33.983C5.46665 34.1644 6.01329 34.7288 6.16409 35.4746L6.82383 38.4375C7.18197 40.05 9.10465 40.5539 10.1037 39.284L15.7398 32.3504C16.1922 31.786 15.9471 30.8992 15.2685 30.7178C11.9321 29.8511 8.935 27.8556 6.72958 25.0136C6.37144 24.55 5.73054 24.4896 5.3347 24.9129L1.15006 29.3875C-0.282521 30.9193 0.226422 32.8341 1.659 33.1969Z" fill="#FF8311"/>
<path d="M19.1909 0C11.8961 0 5.99609 6.3088 5.99609 14.1091C5.99609 17.0318 6.80663 19.7125 8.20151 21.9498C10.2373 25.1747 13.4606 27.4524 17.2117 28.0369C17.8526 28.1578 18.5123 28.2183 19.1909 28.2183C19.8695 28.2183 20.5292 28.1578 21.1701 28.0369C24.9212 27.4524 28.1445 25.1747 30.1803 21.9498C31.5752 19.7125 32.3857 17.0318 32.3857 14.1091C32.3857 6.3088 26.4858 0 19.1909 0ZM24.9589 13.6657L23.3944 15.3387C23.1305 15.6208 22.9797 16.1651 23.074 16.5682L23.5263 18.6442C23.8845 20.2769 23.074 20.9218 21.7168 20.0551L19.8318 18.8659C19.4925 18.6442 18.927 18.6442 18.5877 18.8659L16.7027 20.0551C15.3456 20.9017 14.535 20.2769 14.8932 18.6442L15.3456 16.5682C15.421 16.1852 15.289 15.6208 15.0251 15.3387L13.4229 13.6657C12.4993 12.6781 12.8008 11.6904 14.0826 11.4687L16.0996 11.1059C16.4388 11.0454 16.8347 10.723 16.9855 10.4005L18.0976 8.02206C18.7008 6.73208 19.681 6.73208 20.2842 8.02206L21.3963 10.4005C21.5471 10.723 21.943 11.0454 22.3011 11.1059L24.318 11.4687C25.581 11.6904 25.8826 12.6781 24.9589 13.6657Z" fill="#FF8311"/>
</svg>
