<svg width="26" height="25" viewBox="0 0 26 25" fill="none" xmlns="http://www.w3.org/2000/svg">
<path d="M20.1521 12.5134C19.2809 11.7816 18.1734 11.3932 17.0369 11.4208H9.73192C9.39885 11.4292 9.06751 11.3702 8.75773 11.2473C8.44795 11.1244 8.16611 10.9401 7.92907 10.7055C7.69203 10.4709 7.50467 10.1908 7.37821 9.8819C7.25174 9.57302 7.18877 9.24174 7.19307 8.90791C7.18495 8.77796 7.18495 8.64764 7.19307 8.5177C7.29128 7.92117 7.60343 7.38108 8.07091 6.99885C8.53838 6.61662 9.12902 6.41855 9.73192 6.44182H16.9279C17.5149 6.44131 18.083 6.64973 18.5309 7.02994C18.9788 7.41015 19.2773 7.93741 19.3733 8.5177H21.7097C21.6119 7.31422 21.0657 6.19168 20.1797 5.37328C19.2937 4.55488 18.1329 4.10054 16.9279 4.10061H14.4669V0.510742H12.52V4.10061H9.73192C8.52695 4.10054 7.36608 4.55488 6.48012 5.37328C5.59415 6.19168 5.04797 7.31422 4.95016 8.5177C4.94239 8.64765 4.94239 8.77795 4.95016 8.90791C4.95016 9.53716 5.07385 10.1603 5.31415 10.7416C5.55446 11.323 5.90668 11.8512 6.35071 12.2961C7.24746 13.1948 8.46372 13.6996 9.73192 13.6996H17.1148C17.4452 13.6913 17.774 13.7493 18.0817 13.8703C18.3894 13.9913 18.6698 14.1727 18.9064 14.404C19.143 14.6353 19.331 14.9117 19.4594 15.2169C19.5877 15.5222 19.6538 15.8501 19.6537 16.1813C19.6698 16.3578 19.6698 16.5354 19.6537 16.712C19.53 17.2611 19.2237 17.7519 18.785 18.1035C18.3462 18.4552 17.8012 18.647 17.2394 18.6474H9.91883C9.35701 18.647 8.81201 18.4552 8.3733 18.1035C7.93459 17.7519 7.62826 17.2611 7.50459 16.712H5.15265C5.2865 17.8847 5.84624 18.9671 6.7252 19.7529C7.60416 20.5387 8.74091 20.973 9.91883 20.973H12.52V24.516H14.4669V20.973H17.1148C18.2927 20.973 19.4295 20.5387 20.3084 19.7529C21.1874 18.9671 21.7471 17.8847 21.881 16.712V16.1813C21.8791 15.4802 21.7232 14.7882 21.4244 14.1543C21.1256 13.5204 20.6912 12.9601 20.1521 12.5134Z" fill="black"/>
</svg>
